<svg xmlns="http://www.w3.org/2000/svg" viewBox="0 0 1440 900" preserveAspectRatio="xMidYMid slice" fill="none"><defs><filter id="aa-hero-grain"><feTurbulence type="fractalNoise" baseFrequency=".68" numOctaves="2" stitchTiles="stitch"/><feColorMatrix values="0 0 0 0 .9 0 0 0 0 .85 0 0 0 0 .8 0 0 0 .09 0"/></filter></defs><path fill="#21132F" d="M0 0h1440v900H0z"/><g class="aa-decor-drift"><path fill="#BDA1E5" d="M1080 84l91 16 6-9 104 17 18-5 165 30-8 92-33 9-17-6-151 3-47-14-70 4-98-24 4-77 21 3z"/><path fill="#427E80" d="M1247 488c100-52 178 20 214 98l-8 190-104 40-60-38-14-102-68-30-23-72z"/></g><path fill="#D8A43B" d="M-30 156l156-52 169 32 110 58-14 32-116-34-62 17-58 32-164 26-22-17 18-44-25-8z"/><path fill="#F5EBDD" d="M-25 302l174-64 4 10 73-10 15 119-8 11 21 126-10 15 17 98-8 24-173 51-111-49z"/><path stroke="#21132F" stroke-width="2" stroke-linecap="round" d="M12 401c76-108 201-24 158 59-42 82-126 11-102-52 24-60 127-60 133 25M-4 576l97-33m-82 53 85-36m-70 56 76-37"/><path fill="#EF806E" d="M264 745l79-42 99 12 128-29 6 27-112 24 16 8-130 29-103 37-10-15 41-20z"/><path fill="#D8A43B" d="M1088 667l37 9 12 25-19 24-44-3-17-26zM1164 735l18-7 16 16-7 23-27-6z"/><g stroke="#F5EBDD" stroke-width="2" opacity=".68" stroke-linecap="round"><path d="M991 146c109-70 187 16 164 76-27 73-111 29-87-7 25-37 102-24 119 34"/><path d="M928 771l31-15m-17 37 39-18m-13 35 35-20m-14 32 38-20"/><path d="M461 263h-25v25m568 322h25v-25"/></g><path fill="#F5EBDD" d="M0 0h1440v900H0z" filter="url(#aa-hero-grain)" opacity=".48"/></svg>
